<!DOCTYPE svg PUBLIC "-//W3C//DTD SVG 20010904//EN" "http://www.w3.org/TR/2001/REC-SVG-20010904/DTD/svg10.dtd">
<svg version="1.0" xmlns="http://www.w3.org/2000/svg" width="512px" height="511px" viewBox="0 0 5120 5110" preserveAspectRatio="xMidYMid meet">
<g id="layer101" fill="#000000" stroke="none">
 <path d="M4640 5030 c-14 -4 -79 -33 -145 -66 -66 -32 -121 -56 -121 -54 -1 3 -11 -3 -21 -13 -11 -9 -22 -15 -25 -12 -3 3 -11 -1 -18 -10 -7 -8 -17 -15 -22 -15 -6 0 -66 -27 -134 -60 -68 -34 -127 -61 -131 -61 -5 0 -16 -8 -27 -17 -10 -9 -19 -15 -20 -13 0 2 -68 -29 -151 -70 -82 -40 -153 -72 -157 -71 -3 1 -12 -5 -18 -13 -7 -8 -17 -15 -22 -15 -5 0 -75 -33 -156 -72 -81 -40 -150 -73 -154 -73 -4 0 -13 -6 -19 -12 -7 -7 -17 -13 -21 -13 -5 0 -63 -27 -131 -60 -67 -32 -125 -58 -128 -57 -4 1 -16 -6 -26 -16 -11 -9 -22 -15 -25 -12 -3 3 -11 -1 -18 -10 -7 -8 -17 -15 -22 -15 -6 0 -67 -28 -137 -62 -69 -35 -129 -62 -133 -61 -3 1 -12 -4 -18 -12 -7 -8 -17 -15 -22 -15 -5 0 -75 -33 -156 -72 -81 -40 -150 -72 -154 -71 -3 1 -12 -4 -18 -12 -7 -8 -17 -15 -22 -15 -5 0 -75 -33 -156 -72 -81 -40 -149 -73 -152 -73 -3 0 -12 -5 -20 -10 -18 -12 -108 -54 -118 -55 -4 -1 -15 -9 -26 -18 -10 -9 -21 -17 -25 -16 -3 0 -37 -14 -76 -32 -38 -18 -74 -33 -80 -34 -5 -1 -17 -7 -25 -14 -8 -7 -31 -19 -50 -26 -19 -7 -43 -20 -52 -28 -10 -8 -18 -11 -18 -7 0 4 -8 1 -17 -8 -10 -8 -21 -16 -25 -16 -5 -1 -35 -14 -68 -30 -33 -16 -60 -27 -60 -24 0 4 -8 -1 -17 -9 -10 -8 -36 -23 -58 -33 -22 -9 -58 -36 -80 -59 -33 -33 -41 -47 -39 -75 2 -41 42 -81 80 -81 15 0 79 26 143 57 64 32 118 58 121 58 3 1 82 39 175 85 94 47 172 85 175 85 3 1 74 35 158 77 83 42 152 74 152 71 0 -4 9 2 21 13 12 10 23 18 25 16 2 -1 70 30 152 70 81 40 150 72 154 71 3 -1 12 4 18 12 7 8 16 15 21 15 5 0 76 33 157 72 81 40 149 73 152 73 3 1 83 40 178 87 94 47 172 84 172 82 0 -2 23 10 50 26 28 17 54 30 58 30 4 0 51 22 105 50 53 27 97 46 97 43 0 -3 7 0 15 7 13 11 109 61 125 65 3 0 50 23 105 50 55 28 103 50 107 50 3 0 10 3 14 8 7 7 113 60 124 62 3 1 50 23 105 50 55 28 103 50 107 50 3 0 10 3 14 8 7 7 113 60 124 62 3 1 50 23 105 50 55 27 101 47 101 45 1 -3 10 2 20 11 27 24 107 58 128 55 11 -1 25 -11 32 -20 11 -15 8 -31 -16 -100 -16 -44 -71 -205 -123 -356 -52 -151 -317 -914 -587 -1695 -271 -781 -495 -1436 -497 -1456 -3 -28 2 -44 23 -68 38 -45 77 -43 132 10 l43 40 290 837 c160 460 301 869 314 907 96 282 243 709 425 1233 151 438 212 626 213 661 4 140 -136 248 -273 211z"/>
 <path d="M3885 4307 c-34 -11 -113 -82 -125 -113 -6 -14 -16 -21 -32 -20 -68 5 -163 -61 -195 -134 -34 -79 -24 -200 23 -290 23 -44 67 -100 79 -100 3 0 15 -9 27 -20 12 -11 64 -34 116 -51 82 -27 104 -31 164 -26 38 3 76 11 84 18 8 6 14 8 14 4 0 -4 7 -2 15 5 8 7 15 9 15 6 0 -24 159 136 191 192 28 50 31 62 26 110 -5 44 -12 61 -39 89 -18 19 -42 36 -54 39 -21 5 -21 6 -3 43 28 59 11 136 -40 177 -25 21 -170 73 -214 78 -12 2 -35 -2 -52 -7z m95 -247 c0 -4 -7 -27 -15 -50 -29 -82 -12 -130 58 -166 23 -12 42 -25 44 -30 6 -21 -51 -47 -110 -50 -48 -3 -70 2 -116 23 -62 29 -87 52 -107 100 -21 48 -18 54 24 52 42 -3 82 8 82 22 0 5 6 9 14 9 8 0 18 9 21 20 3 11 12 20 19 20 7 0 18 18 25 40 11 37 13 39 36 28 14 -6 25 -14 25 -18z"/>
 <path d="M2615 3740 c-33 -9 -73 -24 -88 -32 -42 -23 -141 -128 -164 -174 -27 -53 -37 -137 -23 -194 6 -25 12 -53 15 -63 8 -35 93 -137 115 -137 5 0 10 -4 10 -8 0 -10 114 -50 150 -53 21 -2 42 1 120 16 53 10 191 134 217 195 24 55 39 113 37 140 -2 14 -4 40 -5 58 -1 18 -6 35 -11 38 -4 3 -8 14 -8 25 0 11 -6 27 -12 34 -7 8 -24 29 -38 48 -37 52 -131 107 -193 113 -29 3 -54 7 -57 9 -3 1 -32 -5 -65 -15z m121 -227 c74 -53 79 -174 8 -208 -68 -32 -168 6 -192 73 -16 47 -8 109 17 136 20 21 31 24 80 23 40 -2 65 -8 87 -24z"/>
 <path d="M3697 3364 c-1 -1 -15 -4 -32 -7 -16 -2 -48 -13 -70 -22 -22 -10 -43 -19 -47 -19 -5 -1 -38 -33 -75 -71 -57 -59 -72 -82 -90 -139 -54 -168 16 -331 176 -408 55 -26 182 -30 241 -8 3 2 8 2 12 2 3 -1 12 5 18 13 7 8 19 15 27 15 16 0 106 88 144 140 37 51 40 60 53 180 8 75 -28 156 -103 230 -44 43 -69 60 -116 74 -51 16 -130 27 -138 20z m77 -235 c55 -32 80 -103 62 -175 -10 -44 -37 -65 -86 -69 -107 -8 -179 58 -176 161 2 52 28 95 62 100 9 1 18 5 21 7 10 11 85 -5 117 -24z"/>
 <path d="M1790 3333 c-8 -3 -22 -7 -30 -10 -8 -4 -17 -7 -20 -8 -21 -7 -112 -54 -125 -65 -8 -7 -15 -9 -15 -5 0 5 -8 1 -17 -7 -10 -8 -34 -21 -53 -28 -19 -7 -40 -18 -47 -23 -23 -17 -298 -152 -317 -155 -35 -6 -105 20 -126 47 -11 14 -34 48 -52 74 -60 94 -175 156 -288 158 -74 0 -93 -5 -198 -52 -26 -12 -48 -20 -48 -18 -1 2 -10 -3 -20 -11 -11 -9 -44 -27 -74 -40 -30 -13 -62 -30 -71 -37 -8 -7 -21 -13 -28 -13 -6 0 -23 -11 -36 -25 -14 -13 -25 -21 -25 -17 0 4 -9 -6 -20 -23 -11 -16 -20 -26 -20 -22 0 5 -15 -11 -33 -35 -66 -87 -91 -221 -59 -323 10 -32 129 -268 164 -325 12 -19 31 -53 42 -75 25 -47 63 -107 117 -188 21 -32 39 -60 39 -63 0 -7 135 -196 185 -260 22 -28 54 -68 70 -89 28 -37 83 -104 95 -115 3 -3 30 -34 60 -70 93 -109 190 -209 389 -400 26 -25 62 -57 81 -72 19 -14 52 -42 73 -61 21 -20 54 -48 74 -64 20 -15 42 -34 49 -41 7 -6 16 -12 21 -12 5 0 15 -9 23 -20 8 -11 18 -20 22 -20 7 0 36 -21 63 -47 8 -7 18 -13 23 -13 6 0 12 -4 14 -8 2 -4 48 -39 103 -77 55 -38 102 -73 103 -77 2 -4 8 -8 14 -8 6 0 46 -22 89 -50 43 -27 83 -50 88 -50 6 0 11 -4 11 -9 0 -5 10 -13 23 -17 12 -4 24 -9 27 -13 3 -3 28 -17 55 -31 28 -14 52 -27 55 -30 3 -3 29 -17 58 -30 28 -14 52 -28 52 -32 0 -5 6 -8 13 -8 6 0 48 -17 92 -39 113 -55 191 -90 238 -107 22 -8 45 -18 51 -23 6 -5 90 -35 186 -68 150 -52 183 -60 235 -57 66 3 76 5 118 22 16 7 31 12 34 12 8 0 84 62 113 92 59 61 78 99 143 282 66 185 68 193 63 266 -3 53 -12 90 -30 127 -54 110 -128 164 -311 227 -60 21 -132 47 -159 59 -80 36 -183 88 -156 80 14 -4 54 -7 90 -7 95 2 165 32 236 103 83 82 91 93 114 162 25 76 26 159 2 219 -28 73 -103 170 -131 170 -5 0 -11 4 -13 9 -1 5 -34 19 -73 33 -63 22 -111 26 -155 15 -8 -2 -31 -7 -50 -11 -19 -5 -47 -17 -62 -28 -16 -11 -28 -16 -28 -12 0 20 -139 -138 -151 -170 -7 -20 -16 -36 -19 -36 -7 0 -9 -16 -14 -99 -7 -109 37 -210 121 -281 l38 -31 -75 37 c-41 21 -77 40 -80 43 -3 3 -25 16 -50 29 -48 24 -82 44 -90 52 -3 3 -22 14 -42 24 -21 11 -38 23 -38 28 0 4 -5 8 -12 8 -6 0 -26 11 -44 25 -18 14 -37 25 -43 25 -6 0 -11 5 -11 10 0 6 -7 10 -15 10 -8 0 -15 5 -15 10 0 6 -7 10 -15 10 -8 0 -15 4 -15 8 0 4 -13 16 -30 25 -16 10 -35 23 -42 30 -7 7 -29 24 -48 37 -42 29 -65 48 -94 75 -12 11 -37 32 -56 47 -105 80 -279 250 -285 277 -13 61 -14 74 -4 98 5 15 17 32 27 39 25 19 86 49 95 46 4 -1 10 5 13 13 4 8 10 15 15 15 8 0 44 35 80 78 25 30 47 106 44 153 -7 117 -111 211 -233 210 -45 0 -63 -4 -82 -16 -8 -5 -17 -10 -20 -10 -3 -1 -34 -16 -69 -33 -90 -44 -114 -41 -123 17 -3 22 6 30 77 66 44 23 100 52 125 65 25 13 48 24 52 25 3 0 10 3 14 8 4 4 32 19 61 33 69 32 166 130 182 183 13 44 13 139 -1 147 -4 3 -8 13 -8 23 0 29 -92 117 -132 126 -37 8 -92 12 -108 8z m40 -229 c27 -31 7 -58 -75 -101 -44 -23 -81 -42 -82 -44 -2 -1 -6 -2 -10 -4 -11 -3 -114 -54 -138 -68 -48 -28 -65 -37 -70 -37 -9 0 -87 -85 -111 -123 -65 -100 -20 -250 93 -308 73 -38 147 -33 248 16 92 45 130 51 149 23 16 -22 10 -58 -9 -58 -7 0 -18 -7 -25 -15 -7 -9 -15 -13 -18 -10 -7 7 -68 -40 -118 -91 -67 -68 -97 -136 -98 -224 -2 -124 23 -164 220 -350 33 -31 81 -74 109 -95 27 -22 59 -49 71 -60 29 -27 53 -46 94 -75 19 -13 37 -27 40 -30 3 -3 21 -17 40 -30 19 -13 37 -27 40 -31 3 -3 46 -33 95 -65 50 -32 92 -62 93 -66 2 -4 10 -8 17 -8 7 0 15 -3 17 -7 3 -8 66 -44 115 -67 13 -6 23 -14 23 -18 0 -5 6 -8 14 -8 8 0 21 -6 28 -13 7 -7 37 -24 66 -37 28 -14 52 -28 52 -32 0 -5 5 -8 11 -8 13 0 122 -51 129 -60 3 -4 23 -13 45 -20 22 -7 49 -18 60 -24 11 -7 49 -23 85 -36 36 -12 74 -28 85 -35 11 -6 68 -29 127 -49 116 -42 138 -56 169 -118 17 -33 20 -52 15 -92 -9 -73 -97 -324 -122 -351 -27 -30 -93 -48 -142 -39 -51 8 -102 26 -102 36 0 4 -3 7 -7 6 -5 0 -15 2 -23 5 -8 4 -62 23 -120 43 -58 20 -107 39 -110 44 -3 4 -30 15 -60 25 -30 10 -62 24 -71 31 -8 8 -20 14 -25 14 -10 0 -256 120 -264 129 -3 3 -27 17 -55 30 -27 14 -52 27 -55 30 -3 3 -23 15 -45 26 -22 11 -42 22 -45 26 -3 3 -12 8 -20 12 -17 8 -53 30 -60 37 -10 10 -45 31 -62 36 -10 4 -18 10 -18 15 0 5 -7 9 -15 9 -8 0 -15 5 -15 10 0 6 -4 10 -10 10 -11 0 -113 71 -118 82 -2 5 -10 8 -18 8 -8 0 -14 5 -14 10 0 6 -6 10 -13 10 -7 0 -19 9 -27 20 -8 11 -18 20 -23 20 -5 0 -14 6 -22 13 -25 23 -55 47 -61 47 -3 0 -11 6 -18 13 -7 6 -30 25 -50 41 -21 16 -50 41 -66 55 -15 14 -45 40 -66 56 -111 87 -366 343 -504 505 -30 35 -62 72 -70 81 -8 9 -33 40 -55 69 -22 29 -52 67 -66 84 -61 75 -243 344 -307 456 -11 19 -39 69 -63 110 -23 41 -65 120 -91 175 -27 55 -53 107 -57 115 -16 30 -6 115 17 147 19 27 68 59 97 63 6 1 18 9 29 18 10 9 21 17 25 16 3 0 38 14 76 32 39 18 89 37 111 42 77 17 169 -36 214 -125 15 -27 55 -71 97 -104 42 -34 122 -52 196 -45 39 4 76 11 84 17 7 7 13 8 13 4 0 -5 9 0 20 10 11 10 20 16 20 13 0 -3 28 10 63 28 34 18 114 59 177 91 63 31 136 70 163 85 26 15 47 25 47 21 0 -3 8 1 18 9 32 29 70 30 92 2z m1333 -1447 c83 -63 91 -205 15 -246 -74 -39 -180 -10 -222 62 -33 55 -32 144 3 181 46 49 142 51 204 3z"/>
 <path d="M2587 2824 c-3 -3 -13 -7 -24 -9 -10 -2 -19 -4 -20 -5 -2 -2 -7 -4 -13 -5 -5 -1 -12 -4 -15 -5 -3 -1 -8 -3 -12 -4 -43 -8 -176 -138 -220 -214 -20 -34 -53 -124 -60 -162 -9 -49 -7 -169 4 -194 54 -122 123 -205 208 -246 97 -47 169 -32 247 50 l47 50 43 -16 c51 -18 112 -12 142 13 81 68 97 93 133 198 28 84 34 115 29 149 -9 59 -57 106 -132 130 -31 10 -53 21 -47 24 16 11 15 108 -1 139 -42 80 -103 109 -228 111 -42 0 -78 -2 -81 -4z m108 -216 c3 -3 -2 -24 -10 -48 -34 -97 -6 -150 100 -188 39 -13 71 -25 73 -27 2 -2 -19 -65 -22 -65 -2 0 -28 9 -59 19 -30 11 -64 18 -74 16 -10 -2 -23 -4 -29 -4 -18 -1 -114 -99 -114 -115 0 -9 -9 -16 -20 -16 -11 0 -20 5 -20 10 0 6 -6 10 -12 10 -13 0 -56 57 -71 95 -5 11 -10 40 -11 65 -4 66 61 239 84 225 4 -3 13 2 20 10 7 8 16 13 20 10 5 -3 11 -1 14 4 6 10 121 9 131 -1z"/>
 </g>

</svg>